<svg width="24" height="24" viewBox="0 0 24 24" fill="none" xmlns="http://www.w3.org/2000/svg">
<g clip-path="url(#clip0_1_369)">
<path fill-rule="evenodd" clip-rule="evenodd" d="M12 2.25C6.61522 2.25 2.25 6.61522 2.25 12C2.25 17.3848 6.61522 21.75 12 21.75C17.3848 21.75 21.75 17.3848 21.75 12C21.7443 6.61758 17.3824 2.25568 12 2.25ZM12 3.75C13.5984 3.7483 15.1625 4.21361 16.5 5.08875V6.9375L14.4216 9.35063L11.4712 9.75L11.4422 9.72937L9.59813 8.52375C9.26784 8.29109 8.85766 8.2015 8.46044 8.27526C8.06322 8.34902 7.71255 8.5799 7.48781 8.91562L5.52469 11.85C5.36115 12.0945 5.27312 12.3818 5.27156 12.6759L5.25 16.0725L4.94344 16.2741C3.40042 13.7265 3.35033 10.5451 4.81238 7.95021C6.27443 5.35535 9.0216 3.75 12 3.75ZM5.83969 17.4816L6.07594 17.3269C6.49493 17.0505 6.74793 16.5829 6.75 16.0809L6.76969 12.6844L8.73469 9.75C8.74431 9.75741 8.75433 9.76429 8.76469 9.77063L10.6088 10.9772C10.9178 11.1953 11.298 11.2881 11.6728 11.2369L14.625 10.8366C14.9891 10.788 15.3226 10.6075 15.5625 10.3294L17.6409 7.91437C17.8734 7.64204 18.0007 7.29554 18 6.9375V6.34406C20.0662 8.53007 20.7767 11.6685 19.8534 14.5312L18.3403 13.1475C17.9109 12.7533 17.2919 12.6436 16.7531 12.8663L13.8975 14.0522C13.4119 14.256 13.0678 14.6985 12.99 15.2194L12.7659 16.7372C12.6544 17.4936 13.1298 18.2129 13.8694 18.4069L15.8813 18.9375L16.1025 19.1597C12.7161 21.1027 8.43087 20.402 5.83969 17.4816ZM17.3438 18.2812L16.9406 17.8772C16.7526 17.6884 16.5177 17.5532 16.26 17.4853L14.25 16.9547L14.4741 15.4369L17.3288 14.25L19.2188 15.9825C18.737 16.8552 18.1019 17.634 17.3438 18.2812Z" fill="white"/>
</g>
<defs>
<clipPath id="clip0_1_369">
<rect width="24" height="24" fill="white"/>
</clipPath>
</defs>
</svg>
