<svg width="24" height="24" viewBox="0 0 24 24" fill="none" xmlns="http://www.w3.org/2000/svg">
<g clip-path="url(#clip0_1_263)">
<path fill-rule="evenodd" clip-rule="evenodd" d="M22.1053 8.34375L12.3553 3.09375C12.1335 2.97441 11.8665 2.97441 11.6447 3.09375L1.89469 8.34375C1.65294 8.47379 1.50156 8.7255 1.5 9V15C1.49984 15.2762 1.65147 15.5301 1.89469 15.6609L11.6447 20.9109C11.8665 21.0303 12.1335 21.0303 12.3553 20.9109L22.1053 15.6609C22.3485 15.5301 22.5002 15.2762 22.5 15V9C22.4984 8.7255 22.3471 8.47379 22.1053 8.34375ZM21 13.7447L17.7609 12L21 10.2553V13.7447ZM16.1784 11.1478L12.75 9.30188V5.00531L20.1684 9L16.1784 11.1478ZM12 13.3978L9.40312 12L12 10.6022L14.5969 12L12 13.3978ZM11.25 5.00531V9.30188L7.82156 11.1478L3.83156 9L11.25 5.00531ZM3 10.2553L6.23906 12L3 13.7447V10.2553ZM7.82156 12.8522L11.25 14.6981V18.9947L3.83156 15L7.82156 12.8522ZM12.75 18.9947V14.6981L16.1784 12.8522L20.1684 15L12.75 18.9947Z" fill="white"/>
</g>
<defs>
<clipPath id="clip0_1_263">
<rect width="24" height="24" fill="white"/>
</clipPath>
</defs>
</svg>
