<svg width="24" height="24" viewBox="0 0 24 24" fill="none" xmlns="http://www.w3.org/2000/svg">
<g clip-path="url(#clip0_1_251)">
<path fill-rule="evenodd" clip-rule="evenodd" d="M22.5 13.9978C22.5 15.5081 22.2028 16.8 21.6403 17.7328C20.9438 18.8888 19.8591 19.5 18.51 19.5C15.8906 19.5 14.0306 16.0312 12.0619 12.3544C10.4663 9.375 8.65781 6 6.9375 6C6.05813 6 5.06812 6.9375 4.28906 8.50031C3.46036 10.2157 3.02022 12.0928 3 13.9978C3 15.2353 3.22312 16.2591 3.645 16.9584C4.06687 17.6578 4.67062 18 5.49 18C6.9075 18 8.38219 15.6994 9.63656 13.4484C9.83849 13.086 10.296 12.9559 10.6584 13.1578C11.0209 13.3597 11.151 13.8173 10.9491 14.1797C9.51188 16.7541 7.78781 19.5 5.49 19.5C4.13906 19.5 3.0525 18.8888 2.35969 17.7328C1.79719 16.7953 1.5 15.5081 1.5 13.9978C1.5221 11.8611 2.01573 9.75571 2.94563 7.83187C4.01438 5.68312 5.43188 4.5 6.9375 4.5C9.55688 4.5 11.4159 7.96875 13.3856 11.6456C14.9803 14.625 16.7887 18 18.51 18C19.3294 18 19.9331 17.6597 20.355 16.9584C20.7769 16.2572 21 15.2353 21 13.9978C20.9801 12.0929 20.5402 10.2158 19.7119 8.50031C18.9375 6.9375 17.9428 6 17.0625 6C16.2787 6 15.405 6.70125 14.3897 8.145C14.2377 8.3697 13.9762 8.49479 13.7058 8.47212C13.4355 8.44945 13.1984 8.28256 13.086 8.03568C12.9735 7.7888 13.0031 7.50042 13.1634 7.28156C14.0072 6.08719 15.3197 4.5 17.0625 4.5C18.5672 4.5 19.9847 5.68312 21.0534 7.83187C21.9837 9.75563 22.4776 11.8611 22.5 13.9978Z" fill="white"/>
</g>
<defs>
<clipPath id="clip0_1_251">
<rect width="24" height="24" fill="white"/>
</clipPath>
</defs>
</svg>
