<svg width="24" height="24" viewBox="0 0 24 24" fill="none" xmlns="http://www.w3.org/2000/svg">
<g clip-path="url(#clip0_1_215)">
<path fill-rule="evenodd" clip-rule="evenodd" d="M21.2887 6.05813L12.2887 2.30813C12.1041 2.2303 11.8959 2.2303 11.7113 2.30813L2.71125 6.05813C2.3982 6.18871 2.21176 6.51315 2.25656 6.84937L3.75656 18.0994C3.78932 18.3458 3.94206 18.56 4.16437 18.6712L11.6644 22.4212C11.8756 22.527 12.1244 22.527 12.3356 22.4212L19.8356 18.6712C20.0579 18.56 20.2107 18.3458 20.2434 18.0994L21.7434 6.84937C21.7882 6.51315 21.6018 6.18871 21.2887 6.05813ZM18.8091 17.5069L12 20.9119L5.19094 17.5069L3.81938 7.21875L12 3.81281L20.1806 7.21875L18.8091 17.5069ZM11.3438 7.88625L7.59375 14.6362C7.46379 14.8707 7.46879 15.1567 7.60686 15.3865C7.74493 15.6162 7.99509 15.7549 8.26311 15.7502C8.53113 15.7455 8.77629 15.5982 8.90625 15.3638L9.9375 13.5H14.0625L15.0938 15.3638C15.2237 15.5982 15.4689 15.7455 15.7369 15.7502C16.0049 15.7549 16.2551 15.6162 16.3931 15.3865C16.5312 15.1567 16.5362 14.8707 16.4062 14.6362L12.6562 7.88625C12.5242 7.64751 12.2728 7.49934 12 7.49934C11.7272 7.49934 11.4758 7.64751 11.3438 7.88625ZM13.2253 12H10.7747L12 9.79406L13.2253 12Z" fill="white"/>
</g>
<defs>
<clipPath id="clip0_1_215">
<rect width="24" height="24" fill="white"/>
</clipPath>
</defs>
</svg>
