<svg width="24" height="24" viewBox="0 0 24 24" fill="none" xmlns="http://www.w3.org/2000/svg">
<g clip-path="url(#clip0_1_227)">
<path fill-rule="evenodd" clip-rule="evenodd" d="M21.75 5.25H2.25C1.42157 5.25 0.75 5.92157 0.75 6.75V17.25C0.75 18.0784 1.42157 18.75 2.25 18.75H21.75C22.5784 18.75 23.25 18.0784 23.25 17.25V6.75C23.25 5.92157 22.5784 5.25 21.75 5.25ZM21.75 17.25H2.25V6.75H21.75V17.25ZM12 9.75V11.25H12.75C13.1642 11.25 13.5 11.5858 13.5 12C13.5 12.4142 13.1642 12.75 12.75 12.75H12V14.25H13.5C13.9142 14.25 14.25 14.5858 14.25 15C14.25 15.4142 13.9142 15.75 13.5 15.75H11.25C10.8358 15.75 10.5 15.4142 10.5 15V9C10.5 8.58579 10.8358 8.25 11.25 8.25H13.5C13.9142 8.25 14.25 8.58579 14.25 9C14.25 9.41421 13.9142 9.75 13.5 9.75H12ZM20.2219 9.20344L18.5344 15.2034C18.4433 15.5267 18.1484 15.75 17.8125 15.75C17.4766 15.75 17.1817 15.5267 17.0906 15.2034L15.4031 9.20344C15.2927 8.80546 15.5249 8.39314 15.9224 8.28111C16.3199 8.16908 16.7332 8.39951 16.8469 8.79656L17.8125 12.2297L18.7781 8.79656C18.8499 8.53765 19.0548 8.33693 19.3151 8.27038C19.5754 8.20383 19.8514 8.28162 20.0387 8.4743C20.226 8.66699 20.2958 8.94513 20.2219 9.20344ZM6 8.25H5.25C4.83579 8.25 4.5 8.58579 4.5 9V15C4.5 15.4142 4.83579 15.75 5.25 15.75H6C7.65685 15.75 9 14.4069 9 12.75V11.25C9 9.59315 7.65685 8.25 6 8.25ZM7.5 12.75C7.5 13.5784 6.82843 14.25 6 14.25V9.75C6.82843 9.75 7.5 10.4216 7.5 11.25V12.75Z" fill="white"/>
</g>
<defs>
<clipPath id="clip0_1_227">
<rect width="24" height="24" fill="white"/>
</clipPath>
</defs>
</svg>
