<svg width="24" height="24" viewBox="0 0 24 24" fill="none" xmlns="http://www.w3.org/2000/svg">
<g clip-path="url(#clip0_1_239)">
<path fill-rule="evenodd" clip-rule="evenodd" d="M23.0625 9.25594L17.8125 3.25594C17.6705 3.09375 17.4656 3.00051 17.25 3H6.75C6.53443 3.00051 6.32951 3.09375 6.1875 3.25594L0.9375 9.25594C0.683778 9.54562 0.690666 9.98038 0.953438 10.2619L11.4534 21.5119C11.5953 21.6639 11.7939 21.7503 12.0019 21.7503C12.2098 21.7503 12.4085 21.6639 12.5503 21.5119L23.0503 10.2619C23.312 9.97941 23.3173 9.54466 23.0625 9.25594ZM20.8472 9H16.875L13.5 4.5H16.9097L20.8472 9ZM6.99188 10.5L9.81656 17.5622L3.22594 10.5H6.99188ZM15.3919 10.5L12 18.9806L8.60812 10.5H15.3919ZM9 9L12 4.99969L15 9H9ZM17.0081 10.5H20.7741L14.1834 17.5622L17.0081 10.5ZM7.09031 4.5H10.5L7.125 9H3.15281L7.09031 4.5Z" fill="white"/>
</g>
<defs>
<clipPath id="clip0_1_239">
<rect width="24" height="24" fill="white"/>
</clipPath>
</defs>
</svg>
